<svg version="1.1" id="Layer_1" xmlns="http://www.w3.org/2000/svg" xmlns:xlink="http://www.w3.org/1999/xlink" x="0px" y="0px"
	 width="100%" viewBox="0 0 512 512" enable-background="new 0 0 512 512" xml:space="preserve">
<path fill="#010101" opacity="1.000000" stroke="none" 
	d="
M285.000000,513.000000 
	C190.023056,513.000000 95.546112,513.000000 1.034582,513.000000 
	C1.034582,342.398041 1.034582,171.796051 1.034582,1.097036 
	C171.560287,1.097036 342.120667,1.097036 512.840515,1.097036 
	C512.840515,171.666550 512.840515,342.333252 512.840515,513.000000 
	C437.129364,513.000000 361.314667,513.000000 285.000000,513.000000 
M237.025177,312.728577 
	C222.801117,316.471497 210.688507,312.036774 204.218109,300.717102 
	C197.801544,289.491608 200.124237,276.720947 210.495178,266.313232 
	C216.603943,260.182831 222.735550,254.075195 228.851974,247.952408 
	C230.627762,246.174774 232.386581,244.380157 234.442657,242.300522 
	C200.617126,234.527054 170.198898,265.013794 177.124939,299.256989 
	C180.892044,317.882050 192.564301,330.448730 210.765015,335.850311 
	C228.519150,341.119354 244.556198,337.158264 258.689972,323.879486 
	C269.930145,312.061523 274.553223,298.200104 272.354095,280.955505 
	C265.949585,287.321045 260.605896,292.986328 254.874069,298.227142 
	C249.407928,303.225037 243.537201,307.780426 237.025177,312.728577 
M220.220123,296.724884 
	C227.377213,300.901337 231.698395,300.164429 238.314331,293.549286 
	C310.666168,221.205856 383.012177,148.856644 455.358643,76.507874 
	C456.183289,75.683197 457.029633,74.876160 457.803925,74.005806 
	C462.328369,68.919884 462.417633,63.509060 457.752014,57.214806 
	C450.842010,51.829384 445.673035,52.423199 438.585876,59.509220 
	C366.172638,131.910416 293.766937,204.319061 221.359909,276.726440 
	C220.653564,277.432770 219.927429,278.122589 219.262558,278.866608 
	C214.318436,284.399231 214.531326,290.620392 220.220123,296.724884 
M310.264496,242.997696 
	C302.506836,250.742401 294.677063,258.417511 287.069519,266.306976 
	C285.931793,267.486847 285.212708,269.729889 285.365967,271.382202 
	C286.067108,278.942078 287.147888,286.466766 287.877228,294.790527 
	C286.685242,307.851440 281.515930,319.323608 273.290894,330.127136 
	C261.213287,343.962708 246.124161,352.076538 227.700851,352.879425 
	C186.326660,354.682526 154.908173,318.486572 162.082809,277.631378 
	C167.612503,246.143112 199.153290,222.469559 230.581833,226.251617 
	C236.461807,226.959198 243.058670,229.828278 247.995743,228.036987 
	C253.246170,226.132004 256.916656,219.872452 261.276825,215.514084 
	C262.101715,214.689514 262.906403,213.843674 263.753235,213.042282 
	C267.811432,209.201828 271.880920,205.373276 276.394928,201.117645 
	C254.086029,188.623947 231.544800,184.210434 207.795074,188.419693 
	C150.401276,198.591843 114.027641,250.590500 123.778244,307.935791 
	C124.615028,312.857056 123.505562,316.495819 117.736511,318.289825 
	C111.664909,318.017029 110.023689,316.634399 108.991211,310.989197 
	C106.418449,296.922211 106.481827,282.894318 108.869087,268.769714 
	C119.802246,204.081802 185.167511,160.240952 249.236511,174.640533 
	C262.611053,177.646484 275.080231,182.759735 285.937836,189.308441 
	C295.349060,179.863541 304.319977,170.860565 313.371643,161.776550 
	C276.834290,136.952011 236.289963,128.149689 192.620605,137.373154 
	C91.286858,158.776047 39.059532,270.082428 86.991783,361.826752 
	C99.970085,386.667786 118.313469,406.752747 142.935440,421.782654 
	C176.416290,442.147461 212.626053,449.447113 251.134995,442.650482 
	C326.582855,429.334320 380.080353,364.819275 379.906738,288.055573 
	C379.894287,282.543091 381.301697,278.699921 387.536652,277.306244 
	C393.584442,279.048767 394.881958,280.784668 394.991028,287.162720 
	C395.304810,305.506073 392.279724,323.366455 386.899811,341.606323 
	C381.841125,353.021729 376.782440,364.437134 371.194061,376.260376 
	C332.386047,439.476349 262.806244,470.593079 191.171509,456.768127 
	C96.016289,438.403900 35.060535,341.489929 59.287754,247.085251 
	C88.690956,132.511642 224.086517,81.926048 321.369202,149.163208 
	C322.559906,149.986176 323.809387,150.724136 325.515564,151.809830 
	C329.245270,147.887894 332.904419,144.247818 336.276428,140.358749 
	C337.202393,139.290802 337.829926,137.399048 337.635773,136.020325 
	C336.661774,129.104141 335.558167,122.191643 334.070068,115.371681 
	C333.644409,113.420883 332.190796,111.081245 330.517242,110.105316 
	C285.430237,83.812431 237.139221,75.357788 185.790070,84.670692 
	C159.616852,89.417595 135.430832,99.267746 112.813293,113.234070 
	C110.344978,114.758240 105.594154,115.871033 103.825775,114.566628 
	C100.028740,111.765816 97.675568,113.658905 95.168732,115.433647 
	C91.893822,117.752151 88.970108,120.566727 85.958733,123.114220 
	C88.281776,130.952133 88.118866,131.550217 82.211006,137.203995 
	C81.127670,138.240723 80.006042,139.239365 78.954788,140.307465 
	C29.431492,190.624130 8.906442,250.905716 18.470312,320.781494 
	C24.074852,361.729492 41.673923,397.623016 69.264076,428.442719 
	C83.327827,444.152710 99.180779,457.790680 118.070305,468.629761 
	C118.662483,468.863159 119.254669,469.096558 119.861938,469.208557 
	C119.861938,469.208557 119.749252,469.256134 120.135063,469.823364 
	C160.943329,493.185059 204.671463,502.196899 251.334167,496.103943 
	C303.015198,489.355713 346.503113,466.415924 380.616913,427.226807 
	C425.274567,375.925201 441.095581,316.140717 428.969604,249.194809 
	C424.816528,226.266327 416.726624,204.671585 404.461792,184.761200 
	C404.461792,184.761200 404.422241,184.749374 404.286560,184.107208 
	C403.899811,183.596848 403.513031,183.086487 402.938477,181.865616 
	C394.537872,180.228302 386.144836,178.549240 377.724091,177.023132 
	C376.946136,176.882156 375.820190,177.523102 375.147339,178.126205 
	C370.951385,181.887482 366.838409,185.741364 362.757568,189.509506 
	C364.277893,191.819962 365.164612,193.199875 366.083038,194.558365 
	C376.982697,210.681000 384.754913,228.210571 389.656525,247.025101 
	C391.235382,253.085495 390.203308,255.427490 383.979095,258.434143 
	C378.316528,258.807983 376.260284,255.303009 374.989838,250.505386 
	C371.091797,235.785477 365.771210,221.648361 356.996063,208.251297 
	C355.511353,205.935410 354.026611,203.619522 352.651855,201.475174 
	C343.442322,210.744324 334.438446,219.806458 325.252808,229.051575 
	C337.056396,248.825089 342.856842,270.732727 341.821228,294.240540 
	C341.471893,302.170105 339.857544,310.043884 338.328796,318.481964 
	C335.278290,331.213867 329.565826,342.792572 322.383820,354.338898 
	C273.531372,426.584320 167.431946,423.984070 123.331284,349.460571 
	C119.777664,343.455475 120.131050,341.046722 126.026962,336.406982 
	C130.947784,335.048798 133.750519,337.615631 136.098282,341.532318 
	C143.676590,354.174927 153.028870,365.195892 166.038239,373.715332 
	C207.218811,402.403931 263.241669,396.789764 298.224304,360.583069 
	C333.613739,323.955383 333.287231,271.372070 313.537964,239.794571 
	C312.614746,240.803268 311.747437,241.750870 310.264496,242.997696 
M345.405487,87.351540 
	C346.447113,94.717041 347.438232,102.090149 348.547760,109.445412 
	C349.315674,114.536377 350.246948,119.602699 351.252655,125.551994 
	C362.190674,114.591675 372.311981,104.484169 382.362671,94.306892 
	C383.090454,93.569923 383.824860,92.242012 383.678467,91.329681 
	C381.796753,79.602684 379.755127,67.901329 377.582489,55.189709 
	C366.549896,66.191467 356.228638,76.483879 345.405487,87.351540 
M410.377411,142.877426 
	C403.632996,149.623108 396.888550,156.368790 389.611755,163.646957 
	C399.772888,165.281601 408.924866,166.182007 417.762054,168.359787 
	C424.604248,170.045959 429.025085,168.339508 433.676025,163.222366 
	C441.689270,154.405930 450.518402,146.331055 459.820251,137.139557 
	C452.000854,135.856903 445.232422,135.584366 439.041870,133.551743 
	C427.215118,129.668549 417.880280,131.806549 410.377411,142.877426 
M409.522552,31.092285 
	C409.180847,29.194002 408.839142,27.295719 408.502045,25.423000 
	C407.837524,25.477638 407.408264,25.379822 407.230316,25.547972 
	C405.297058,27.374500 403.609924,29.536104 401.462860,31.048759 
	C392.257416,37.534191 389.423126,45.656593 392.910858,56.668686 
	C395.149933,63.738220 395.673187,71.351196 397.191956,80.011475 
	C402.439087,74.592262 406.505676,69.965622 411.043610,65.859909 
	C413.930542,63.247936 414.377014,60.511688 413.767120,56.997906 
	C412.319122,48.655773 411.062775,40.280376 409.522552,31.092285 
M477.991028,118.514229 
	C481.757782,114.727531 485.524536,110.940834 489.904785,106.537384 
	C478.215393,104.556656 467.911255,102.740837 457.575989,101.124023 
	C455.724182,100.834335 453.061462,100.620277 451.938354,101.646477 
	C446.474213,106.639351 441.406128,112.065697 435.804626,117.736725 
	C446.350983,119.549309 456.220886,120.953392 465.944916,123.037727 
	C470.955627,124.111748 474.636169,123.237854 477.991028,118.514229 
z"/>
<path fill="#FB636E" opacity="1.000000" stroke="none" 
	d="
M117.718170,468.089722 
	C99.180779,457.790680 83.327827,444.152710 69.264076,428.442719 
	C41.673923,397.623016 24.074852,361.729492 18.470312,320.781494 
	C8.906442,250.905716 29.431492,190.624130 78.954788,140.307465 
	C80.006042,139.239365 81.127670,138.240723 82.211006,137.203995 
	C88.118866,131.550217 88.281776,130.952133 85.958733,123.114220 
	C88.970108,120.566727 91.893822,117.752151 95.168732,115.433647 
	C97.675568,113.658905 100.028740,111.765816 103.825775,114.566628 
	C105.594154,115.871033 110.344978,114.758240 112.813293,113.234070 
	C135.430832,99.267746 159.616852,89.417595 185.790070,84.670692 
	C237.139221,75.357788 285.430237,83.812431 330.517242,110.105316 
	C332.190796,111.081245 333.644409,113.420883 334.070068,115.371681 
	C335.558167,122.191643 336.661774,129.104141 337.635773,136.020325 
	C337.829926,137.399048 337.202393,139.290802 336.276428,140.358749 
	C332.904419,144.247818 329.245270,147.887894 325.515564,151.809830 
	C323.809387,150.724136 322.559906,149.986176 321.369202,149.163208 
	C224.086517,81.926048 88.690956,132.511642 59.287754,247.085251 
	C35.060535,341.489929 96.016289,438.403900 191.171509,456.768127 
	C262.806244,470.593079 332.386047,439.476349 371.797546,376.210846 
	C376.024353,377.819061 379.606018,379.577057 383.282898,381.106018 
	C386.866547,382.596100 387.566040,384.227814 385.216370,387.811249 
	C370.207642,410.700836 351.661102,430.181274 329.240814,445.817780 
	C284.854950,476.773773 235.664429,489.454681 181.765503,484.097015 
	C164.852173,482.415741 148.449615,478.831116 132.484100,473.045471 
	C128.327301,471.539093 123.998863,470.506378 119.749252,469.256134 
	C119.749252,469.256134 119.861938,469.208557 119.736389,468.943878 
	C118.979942,468.482727 118.349052,468.286224 117.718170,468.089722 
z"/>
<path fill="#F4F4F4" opacity="1.000000" stroke="none" 
	d="
M142.556519,421.181030 
	C118.313469,406.752747 99.970085,386.667786 86.991783,361.826752 
	C39.059532,270.082428 91.286858,158.776047 192.620605,137.373154 
	C236.289963,128.149689 276.834290,136.952011 313.371643,161.776550 
	C304.319977,170.860565 295.349060,179.863541 285.937836,189.308441 
	C275.080231,182.759735 262.611053,177.646484 249.236511,174.640533 
	C185.167511,160.240952 119.802246,204.081802 108.869087,268.769714 
	C106.481827,282.894318 106.418449,296.922211 108.991211,310.989197 
	C110.023689,316.634399 111.664909,318.017029 118.198517,318.689514 
	C120.847672,324.917267 123.034821,330.745300 125.221977,336.573334 
	C120.131050,341.046722 119.777664,343.455475 123.331284,349.460571 
	C167.431946,423.984070 273.531372,426.584320 323.048706,354.171143 
	C328.797974,356.166809 333.882324,358.330292 339.264038,360.620270 
	C338.151642,362.489807 337.561462,363.672943 336.799774,364.732819 
	C326.649597,378.856506 314.556763,391.075623 300.473419,401.270142 
	C281.379608,415.091583 260.355316,424.454926 237.179016,429.238068 
	C220.797821,432.618774 204.293152,433.153046 187.835648,431.743256 
	C173.486923,430.514069 159.350647,427.322205 145.957840,421.577698 
	C144.952332,421.146393 143.696167,421.299561 142.556519,421.181030 
z"/>
<path fill="#FB636E" opacity="1.000000" stroke="none" 
	d="
M125.624466,336.490173 
	C123.034821,330.745300 120.847672,324.917267 118.590897,318.707520 
	C123.505562,316.495819 124.615028,312.857056 123.778244,307.935791 
	C114.027641,250.590500 150.401276,198.591843 207.795074,188.419693 
	C231.544800,184.210434 254.086029,188.623947 276.394928,201.117645 
	C271.880920,205.373276 267.811432,209.201828 263.753235,213.042282 
	C262.906403,213.843674 262.101715,214.689514 261.276825,215.514084 
	C256.916656,219.872452 253.246170,226.132004 247.995743,228.036987 
	C243.058670,229.828278 236.461807,226.959198 230.581833,226.251617 
	C199.153290,222.469559 167.612503,246.143112 162.082809,277.631378 
	C154.908173,318.486572 186.326660,354.682526 227.700851,352.879425 
	C246.124161,352.076538 261.213287,343.962708 273.798615,330.266357 
	C279.459412,332.904388 284.612457,335.403229 289.799530,337.918518 
	C289.264557,339.206512 289.105835,339.881927 288.736420,340.410034 
	C288.168671,341.221710 287.470795,341.945343 286.803009,342.683624 
	C275.604645,355.063904 262.299988,364.514740 246.939087,371.002411 
	C228.289215,378.879181 208.821686,380.888824 188.906403,378.080719 
	C181.084595,376.977814 173.414474,374.799194 165.675278,373.110443 
	C153.028870,365.195892 143.676590,354.174927 136.098282,341.532318 
	C133.750519,337.615631 130.947784,335.048798 125.624466,336.490173 
z"/>
<path fill="#FA4754" opacity="1.000000" stroke="none" 
	d="
M119.942154,469.539734 
	C123.998863,470.506378 128.327301,471.539093 132.484100,473.045471 
	C148.449615,478.831116 164.852173,482.415741 181.765503,484.097015 
	C235.664429,489.454681 284.854950,476.773773 329.240814,445.817780 
	C351.661102,430.181274 370.207642,410.700836 385.216370,387.811249 
	C387.566040,384.227814 386.866547,382.596100 383.282898,381.106018 
	C379.606018,379.577057 376.024353,377.819061 372.062378,376.006958 
	C376.782440,364.437134 381.841125,353.021729 387.435303,341.294983 
	C392.536835,342.940643 397.171143,344.755768 401.643188,346.908081 
	C404.317352,348.195068 405.804565,348.004852 406.917511,344.984863 
	C414.589600,324.166290 419.485291,302.755920 419.909576,280.534668 
	C420.130981,268.937653 419.721893,257.295105 418.918610,245.720230 
	C417.813202,229.791016 413.976013,214.379730 408.732025,199.300934 
	C407.072754,194.529831 405.893097,189.591919 404.493958,184.730347 
	C416.726624,204.671585 424.816528,226.266327 428.969604,249.194809 
	C441.095581,316.140717 425.274567,375.925201 380.616913,427.226807 
	C346.503113,466.415924 303.015198,489.355713 251.334167,496.103943 
	C204.671463,502.196899 160.943329,493.185059 119.942154,469.539734 
z"/>
<path fill="#E4E4E4" opacity="1.000000" stroke="none" 
	d="
M142.745972,421.481842 
	C143.696167,421.299561 144.952332,421.146393 145.957840,421.577698 
	C159.350647,427.322205 173.486923,430.514069 187.835648,431.743256 
	C204.293152,433.153046 220.797821,432.618774 237.179016,429.238068 
	C260.355316,424.454926 281.379608,415.091583 300.473419,401.270142 
	C314.556763,391.075623 326.649597,378.856506 336.799774,364.732819 
	C337.561462,363.672943 338.151642,362.489807 339.264038,360.620270 
	C333.882324,358.330292 328.797974,356.166809 323.332092,353.991760 
	C329.565826,342.792572 335.278290,331.213867 338.946045,318.262024 
	C345.410217,320.687836 351.257111,323.333557 357.265594,326.052429 
	C362.901764,312.282806 365.959839,298.337067 366.818481,284.180023 
	C368.321991,259.390869 366.503174,234.855270 356.830902,211.494247 
	C356.546112,210.806503 357.015442,209.806519 357.133179,208.952118 
	C365.771210,221.648361 371.091797,235.785477 374.989838,250.505386 
	C376.260284,255.303009 378.316528,258.807983 384.425354,258.834106 
	C385.525208,265.173798 386.178772,271.113495 386.832367,277.053223 
	C381.301697,278.699921 379.894287,282.543091 379.906738,288.055573 
	C380.080353,364.819275 326.582855,429.334320 251.134995,442.650482 
	C212.626053,449.447113 176.416290,442.147461 142.745972,421.481842 
z"/>
<path fill="#FC646F" opacity="1.000000" stroke="none" 
	d="
M387.184509,277.179749 
	C386.178772,271.113495 385.525208,265.173798 384.830231,258.835510 
	C390.203308,255.427490 391.235382,253.085495 389.656525,247.025101 
	C384.754913,228.210571 376.982697,210.681000 366.083038,194.558365 
	C365.164612,193.199875 364.277893,191.819962 362.757568,189.509506 
	C366.838409,185.741364 370.951385,181.887482 375.147339,178.126205 
	C375.820190,177.523102 376.946136,176.882156 377.724091,177.023132 
	C386.144836,178.549240 394.537872,180.228302 403.021088,182.586533 
	C403.543213,183.788101 403.982727,184.268738 404.422241,184.749374 
	C404.422241,184.749374 404.461792,184.761200 404.477875,184.745773 
	C405.893097,189.591919 407.072754,194.529831 408.732025,199.300934 
	C413.976013,214.379730 417.813202,229.791016 418.918610,245.720230 
	C419.721893,257.295105 420.130981,268.937653 419.909576,280.534668 
	C419.485291,302.755920 414.589600,324.166290 406.917511,344.984863 
	C405.804565,348.004852 404.317352,348.195068 401.643188,346.908081 
	C397.171143,344.755768 392.536835,342.940643 387.607239,340.960815 
	C392.279724,323.366455 395.304810,305.506073 394.991028,287.162720 
	C394.881958,280.784668 393.584442,279.048767 387.184509,277.179749 
z"/>
<path fill="#FA4754" opacity="1.000000" stroke="none" 
	d="
M165.856750,373.412903 
	C173.414474,374.799194 181.084595,376.977814 188.906403,378.080719 
	C208.821686,380.888824 228.289215,378.879181 246.939087,371.002411 
	C262.299988,364.514740 275.604645,355.063904 286.803009,342.683624 
	C287.470795,341.945343 288.168671,341.221710 288.736420,340.410034 
	C289.105835,339.881927 289.264557,339.206512 289.799530,337.918518 
	C284.612457,335.403229 279.459412,332.904388 274.096802,330.109497 
	C281.515930,319.323608 286.685242,307.851440 288.300903,294.549011 
	C293.973724,296.782318 299.304840,299.100311 304.443329,301.786804 
	C307.899170,303.593597 309.417297,302.741089 310.505859,299.110321 
	C314.677521,285.196960 314.400177,270.937286 313.794403,256.705872 
	C313.594269,252.003906 311.894348,247.365799 310.880157,242.698486 
	C311.747437,241.750870 312.614746,240.803268 313.537964,239.794571 
	C333.287231,271.372070 333.613739,323.955383 298.224304,360.583069 
	C263.241669,396.789764 207.218811,402.403931 165.856750,373.412903 
z"/>
<path fill="#918291" opacity="1.000000" stroke="none" 
	d="
M219.836121,296.090881 
	C214.531326,290.620392 214.318436,284.399231 219.262558,278.866608 
	C219.927429,278.122589 220.653564,277.432770 221.359909,276.726440 
	C293.766937,204.319061 366.172638,131.910416 438.585876,59.509220 
	C445.673035,52.423199 450.842010,51.829384 457.869019,57.877045 
	C456.888336,59.967163 455.934875,61.539131 454.672455,62.802315 
	C378.022217,139.498627 301.350677,216.173691 224.640350,292.809875 
	C223.292023,294.156891 221.448547,295.008240 219.836121,296.090881 
z"/>
<path fill="#F2F2F2" opacity="1.000000" stroke="none" 
	d="
M258.050598,324.110229 
	C244.556198,337.158264 228.519150,341.119354 210.765015,335.850311 
	C192.564301,330.448730 180.892044,317.882050 177.124939,299.256989 
	C170.198898,265.013794 200.617126,234.527054 234.442657,242.300522 
	C232.386581,244.380157 230.627762,246.174774 228.851974,247.952408 
	C222.735550,254.075195 216.603943,260.182831 210.495178,266.313232 
	C200.124237,276.720947 197.801544,289.491608 204.218109,300.717102 
	C210.688507,312.036774 222.801117,316.471497 237.602524,312.963379 
	C240.678619,314.479462 243.213409,315.695740 245.668045,317.056610 
	C249.822235,319.359680 253.925766,321.754150 258.050598,324.110229 
z"/>
<path fill="#7A6E79" opacity="1.000000" stroke="none" 
	d="
M220.028122,296.407898 
	C221.448547,295.008240 223.292023,294.156891 224.640350,292.809875 
	C301.350677,216.173691 378.022217,139.498627 454.672455,62.802315 
	C455.934875,61.539131 456.888336,59.967163 458.040894,58.183395 
	C462.417633,63.509060 462.328369,68.919884 457.803925,74.005806 
	C457.029633,74.876160 456.183289,75.683197 455.358643,76.507874 
	C383.012177,148.856644 310.666168,221.205856 238.314331,293.549286 
	C231.698395,300.164429 227.377213,300.901337 220.028122,296.407898 
z"/>
<path fill="#F4F4F4" opacity="1.000000" stroke="none" 
	d="
M357.064636,208.601715 
	C357.015442,209.806519 356.546112,210.806503 356.830902,211.494247 
	C366.503174,234.855270 368.321991,259.390869 366.818481,284.180023 
	C365.959839,298.337067 362.901764,312.282806 357.265594,326.052429 
	C351.257111,323.333557 345.410217,320.687836 339.192322,317.992615 
	C339.857544,310.043884 341.471893,302.170105 341.821228,294.240540 
	C342.856842,270.732727 337.056396,248.825089 325.252808,229.051575 
	C334.438446,219.806458 343.442322,210.744324 352.651855,201.475174 
	C354.026611,203.619522 355.511353,205.935410 357.064636,208.601715 
z"/>
<path fill="#4F748B" opacity="1.000000" stroke="none" 
	d="
M345.656433,87.063919 
	C356.228638,76.483879 366.549896,66.191467 377.582489,55.189709 
	C379.755127,67.901329 381.796753,79.602684 383.678467,91.329681 
	C383.824860,92.242012 383.090454,93.569923 382.362671,94.306892 
	C372.311981,104.484169 362.190674,114.591675 351.252655,125.551994 
	C350.246948,119.602699 349.315674,114.536377 348.547760,109.445412 
	C347.438232,102.090149 346.447113,94.717041 345.656433,87.063919 
z"/>
<path fill="#4F748C" opacity="1.000000" stroke="none" 
	d="
M410.627350,142.627350 
	C417.880280,131.806549 427.215118,129.668549 439.041870,133.551743 
	C445.232422,135.584366 452.000854,135.856903 459.820251,137.139557 
	C450.518402,146.331055 441.689270,154.405930 433.676025,163.222366 
	C429.025085,168.339508 424.604248,170.045959 417.762054,168.359787 
	C408.924866,166.182007 399.772888,165.281601 389.611755,163.646957 
	C396.888550,156.368790 403.632996,149.623108 410.627350,142.627350 
z"/>
<path fill="#FD646F" opacity="1.000000" stroke="none" 
	d="
M310.572327,242.848083 
	C311.894348,247.365799 313.594269,252.003906 313.794403,256.705872 
	C314.400177,270.937286 314.677521,285.196960 310.505859,299.110321 
	C309.417297,302.741089 307.899170,303.593597 304.443329,301.786804 
	C299.304840,299.100311 293.973724,296.782318 288.408447,294.155762 
	C287.147888,286.466766 286.067108,278.942078 285.365967,271.382202 
	C285.212708,269.729889 285.931793,267.486847 287.069519,266.306976 
	C294.677063,258.417511 302.506836,250.742401 310.572327,242.848083 
z"/>
<path fill="#4E738B" opacity="1.000000" stroke="none" 
	d="
M409.625732,31.505356 
	C411.062775,40.280376 412.319122,48.655773 413.767120,56.997906 
	C414.377014,60.511688 413.930542,63.247936 411.043610,65.859909 
	C406.505676,69.965622 402.439087,74.592262 397.191956,80.011475 
	C395.673187,71.351196 395.149933,63.738220 392.910858,56.668686 
	C389.423126,45.656593 392.257416,37.534191 401.462860,31.048759 
	C403.609924,29.536104 405.297058,27.374500 407.230316,25.547972 
	C407.408264,25.379822 407.837524,25.477638 408.502045,25.423000 
	C408.839142,27.295719 409.180847,29.194002 409.625732,31.505356 
z"/>
<path fill="#4F738B" opacity="1.000000" stroke="none" 
	d="
M477.738068,118.765991 
	C474.636169,123.237854 470.955627,124.111748 465.944916,123.037727 
	C456.220886,120.953392 446.350983,119.549309 435.804626,117.736725 
	C441.406128,112.065697 446.474213,106.639351 451.938354,101.646477 
	C453.061462,100.620277 455.724182,100.834335 457.575989,101.124023 
	C467.911255,102.740837 478.215393,104.556656 489.904785,106.537384 
	C485.524536,110.940834 481.757782,114.727531 477.738068,118.765991 
z"/>
<path fill="#E3E3E3" opacity="1.000000" stroke="none" 
	d="
M258.370300,323.994873 
	C253.925766,321.754150 249.822235,319.359680 245.668045,317.056610 
	C243.213409,315.695740 240.678619,314.479462 238.012100,312.864258 
	C243.537201,307.780426 249.407928,303.225037 254.874069,298.227142 
	C260.605896,292.986328 265.949585,287.321045 272.354095,280.955505 
	C274.553223,298.200104 269.930145,312.061523 258.370300,323.994873 
z"/>
<path fill="#FA4754" opacity="1.000000" stroke="none" 
	d="
M404.354401,184.428284 
	C403.982727,184.268738 403.543213,183.788101 403.114990,182.941772 
	C403.513031,183.086487 403.899811,183.596848 404.354401,184.428284 
z"/>
<path fill="#FA4754" opacity="1.000000" stroke="none" 
	d="
M117.894234,468.359741 
	C118.349052,468.286224 118.979942,468.482727 119.728836,469.004578 
	C119.254669,469.096558 118.662483,468.863159 117.894234,468.359741 
z"/>
</svg>